# xmcd
#
# Track frame offsets:
#	150
#	18270
#	35570
#
# Disc length: 713 seconds
#
# Revision: 2
# Processed by: cddbd v1.5.2PL0 Copyright (c) Steve Scherf et al.
# Submitted via: audiograbber 1.83.01
#
DISCID=1a02c703
DTITLE=Dru Hill - How Deep Is Your Love [CD Single)
DYEAR=1998
DGENRE=Rhythmic Soul
TTITLE0=How Deep Is Your Love
TTITLE1=How Deep Is Your Love (ft Redman)
TTITLE2=Album Snippets
EXTD=
EXTT0=
EXTT1=
EXTT2=
PLAYORDER=
